<?xml version="1.0" encoding="UTF-8"?> <svg xmlns="http://www.w3.org/2000/svg" width="371" height="90" viewBox="0 0 371 90" fill="none"> <path d="M157.46 61.13V82.49H168.14V58.49C168.14 51.22 164.57 42.73 153.91 42.73C148.59 42.73 144.54 45.53 141.82 49.73C140.599 47.6005 138.837 45.8316 136.712 44.6023C134.587 43.3731 132.175 42.7271 129.72 42.73C124.38 42.73 119.92 46.79 117.87 49.73H117.71V43.85H107.49V82.53H118.14V61.28C118.14 56.58 120.65 51.84 125.83 51.84C131.47 51.84 132.41 57.03 132.41 59.26V82.49H143.14V61.44C143.14 56.66 145.85 51.84 151.08 51.84C156.14 51.84 157.46 56.27 157.46 61.13Z" fill="black"></path> <path d="M189.03 43.8101H178.35V82.5001H189.03V43.8101Z" fill="black"></path> <path d="M223.54 61.13V82.49H234.22V58.49C234.22 51.22 230.85 42.73 220.22 42.73C214.63 42.73 210.53 46.73 208.41 49.73H208.25V43.85H198V82.53H208.68V61.28C208.68 56.74 211.44 51.84 216.97 51.84C222.14 51.84 223.54 56.49 223.54 61.13Z" fill="black"></path> <path d="M256.871 33H246.351V43.82H239.811V52.36H246.351V69.36C246.351 75.36 247.801 83.36 259.281 83.36C261.577 83.3557 263.859 82.9878 266.041 82.27L265.781 73.91C264.272 74.42 262.693 74.6867 261.101 74.7C257.981 74.7 256.871 72.51 256.871 69.29V52.35H266.211V43.81H256.871V33Z" fill="black"></path> <path d="M107.49 12.8201H112.41V32.5101H107.49V12.8201Z" fill="black"></path> <path d="M117.46 12.8201H122.14V16.0001H122.22C122.781 14.8642 123.654 13.9109 124.735 13.2507C125.817 12.5905 127.063 12.2505 128.33 12.2701C133.46 12.2701 135.59 16.2101 135.59 20.2701V32.5801H130.67V21.6001C130.67 19.2601 130.14 16.3501 126.98 16.3501C123.82 16.3501 122.39 19.0601 122.39 21.6801V32.5101H117.47L117.46 12.8201Z" fill="black"></path> <path d="M175.59 32.5101H170.92V29.3501H170.84C170.279 30.4859 169.407 31.4393 168.325 32.0995C167.244 32.7597 165.997 33.0997 164.73 33.0801C159.6 33.0801 157.47 29.1501 157.47 25.0801V12.8201H162.39V23.7301C162.39 26.0701 162.92 28.9801 166.08 28.9801C169.24 28.9801 170.67 26.2701 170.67 23.6501V12.8201H175.59V32.5101Z" fill="black"></path> <path d="M180.63 12.8201H185.55V32.5101H180.63V12.8201Z" fill="black"></path> <path d="M154.05 12.8101H138.09V17.1701H143.61V32.5101H148.53V17.1701H154.05V12.8101Z" fill="black"></path> <path d="M143.14 7.27002C143.14 6.67667 143.316 6.09666 143.646 5.60331C143.975 5.10996 144.444 4.72544 144.992 4.49838C145.54 4.27132 146.143 4.21191 146.725 4.32767C147.307 4.44342 147.842 4.72915 148.261 5.1487C148.681 5.56826 148.967 6.10281 149.082 6.68475C149.198 7.26669 149.139 7.8699 148.912 8.41807C148.685 8.96625 148.3 9.43479 147.807 9.76443C147.314 10.0941 146.733 10.27 146.14 10.27C145.344 10.27 144.581 9.95395 144.019 9.39134C143.456 8.82873 143.14 8.06567 143.14 7.27002Z" fill="black"></path> <path d="M204.96 12.8101H189V17.1701H194.52V32.5101H199.44V17.1701H204.96V12.8101Z" fill="black"></path> <path d="M194 7.27002C194 6.67667 194.176 6.09666 194.506 5.60331C194.835 5.10996 195.304 4.72544 195.852 4.49838C196.4 4.27132 197.003 4.21191 197.585 4.32767C198.167 4.44342 198.702 4.72915 199.121 5.1487C199.541 5.56826 199.827 6.10281 199.942 6.68475C200.058 7.26669 199.999 7.8699 199.772 8.41807C199.545 8.96625 199.16 9.43479 198.667 9.76443C198.173 10.0941 197.593 10.27 197 10.27C196.204 10.27 195.441 9.95395 194.879 9.39134C194.316 8.82873 194 8.06567 194 7.27002Z" fill="black"></path> <path d="M45 90C69.8528 90 90 69.8528 90 45C90 20.1472 69.8528 0 45 0C20.1472 0 0 20.1472 0 45C0 69.8528 20.1472 90 45 90Z" fill="white"></path> <path fill-rule="evenodd" clip-rule="evenodd" d="M90 45C90 69.8528 69.8528 90 45 90C20.1472 90 0 69.8528 0 45C0 20.1472 20.1472 0 45 0C69.8528 0 90 20.1472 90 45ZM45 12.5401C41.8319 15.715 21.76 36.4678 21.76 52.67C21.76 62.4395 28.321 66.7119 38.7787 73.5219C40.7234 74.7883 42.8029 76.1424 45 77.636V77.68L45.0323 77.658L45.05 77.67C47.2844 76.1458 49.3985 74.7668 51.3739 73.4784L51.374 73.4783C61.7758 66.6936 68.33 62.4186 68.33 52.67C68.33 36.38 48.01 15.46 45.05 12.49L45.02 12.52L45 12.5V12.5401ZM44.49 22.6383V69.4849L42.32 68.07C31.11 60.77 28.26 58.3 28.26 52.67C28.26 43.6932 36.9523 31.289 44.49 22.6383Z" fill="#00A38F"></path> </svg> 